<?xml version="1.0" standalone="no"?>
<!DOCTYPE svg PUBLIC "-//W3C//DTD SVG 20010904//EN"
 "http://www.w3.org/TR/2001/REC-SVG-20010904/DTD/svg10.dtd">
<svg version="1.0" xmlns="http://www.w3.org/2000/svg"
 width="90.000000pt" height="90.000000pt" viewBox="0 0 90.000000 90.000000"
 preserveAspectRatio="xMidYMid meet">

<g transform="translate(0.000000,90.000000) scale(0.100000,-0.100000)"
fill="#000000" stroke="none">
<path d="M30 317 c0 -8 14 -41 30 -74 39 -77 121 -155 207 -196 64 -30 74 -32
183 -32 109 0 119 2 183 32 86 41 168 119 207 196 16 33 30 66 30 74 0 10 -35
13 -174 13 l-174 0 -14 -72 c-13 -71 -14 -73 -43 -73 l-30 0 3 73 4 72 -74 0
-74 0 -12 -71 c-11 -76 -20 -89 -64 -89 -20 0 -28 5 -28 18 0 17 16 90 26 125
5 15 -4 17 -90 17 -74 0 -96 -3 -96 -13z"/>
</g>
</svg>
